<!-- icon666.com - MILLIONS vector ICONS FREE --><svg id="svg13" clip-rule="evenodd" fill-rule="evenodd" stroke-linejoin="round" stroke-miterlimit="2" viewBox="0 0 64 64" xmlns="http://www.w3.org/2000/svg" xmlns:svg="http://www.w3.org/2000/svg"><path id="path4" d="m31.9995 4.999881c-6.071105 0-10.999989 4.928884-10.999989 10.999989 0 3.508885 1.697776 8.153325 4.327773 11.302211 1.862221 2.228887 4.189996 3.697774 6.672216 3.697774s4.809995-1.468887 6.672216-3.697774c2.629997-3.148886 4.327773-7.793326 4.327773-11.302211 0-6.071105-4.928884-10.999989-10.999989-10.999989z" stroke-width="1.111"></path><path id="Contact" d="m19 59h-3c-1.326 0-2.598-.527-3.536-1.464-.937-.938-1.464-2.21-1.464-3.536 0-2.182 0-5.043 0-8.025 0-8.213 5.832-15.063 13.582-16.636 2.114 2.221 4.681 3.661 7.418 3.661s5.304-1.44 7.418-3.661c7.75 1.573 13.582 8.423 13.582 16.636v8.025c0 1.326-.527 2.598-1.464 3.536-.938.937-2.21 1.464-3.536 1.464h-3v-15c0-.552-.448-1-1-1s-1 .448-1 1v15h-22v-15c0-.552-.448-1-1-1s-1 .448-1 1z"></path></svg>